<svg width="1024" height="1024" xmlns="http://www.w3.org/2000/svg"><defs><linearGradient id="Gradient2" x1="0" x2="0" y1="0" y2="1"><stop offset="0%" stop-color="#ffab91"></stop><stop offset="100%" stop-color="#4fc3f7"></stop></linearGradient><linearGradient id="Gradient3" x1="0" x2="0" y1="0" y2="1"><stop offset="0%" stop-color="#4fc3f7"></stop><stop offset="100%" stop-color="#ffab91"></stop></linearGradient></defs><g transform="rotate(-15, 125, 460)"><ellipse cx="125" cy="460" rx="110" ry="180" fill="url(#Gradient2)"></ellipse></g><ellipse cx="360" cy="225" rx="140" ry="220" fill="url(#Gradient3)"></ellipse><ellipse cx="660" cy="225" rx="140" ry="220" fill="url(#Gradient2)"></ellipse><g transform="rotate(15, 890, 460)"><ellipse cx="890" cy="460" rx="120" ry="180" fill="url(#Gradient2)"></ellipse></g><path d="M300,700C300,400,700,400,700,700" fill="#4fc3f7"></path><g transform="rotate(90, 650, 650)"><path d="M650,650C650,250,1150,250,950,650" fill="#4fc3f7"></path></g><g transform="rotate(-90, 350, 650)"><path d="M350,650C340,250,-150,250,50,650" fill="#4fc3f7"></path></g><path d="M250,750C250,1050,650,1150,800,750" fill="#4fc3f7"></path><path d="M320,700h340v100h-340Z" fill="#4fc3f7"></path></svg>